<?xml version="1.0" encoding="UTF-8"?>
<svg xmlns="http://www.w3.org/2000/svg" xmlns:xlink="http://www.w3.org/1999/xlink" viewBox="0 0 50 50" version="1.1" fill="#808080"><g id="surface1" fill="#808080"><path style=" " d="M 24.90625 0.96875 C 24.863281 0.976563 24.820313 0.988281 24.78125 1 C 24.316406 1.105469 23.988281 1.523438 24 2 L 24 6 C 23.996094 6.359375 24.183594 6.695313 24.496094 6.878906 C 24.808594 7.058594 25.191406 7.058594 25.503906 6.878906 C 25.816406 6.695313 26.003906 6.359375 26 6 L 26 2 C 26.011719 1.710938 25.894531 1.433594 25.6875 1.238281 C 25.476563 1.039063 25.191406 0.941406 24.90625 0.96875 Z M 10 7.1875 C 9.625 7.253906 9.324219 7.527344 9.21875 7.890625 C 9.113281 8.257813 9.222656 8.648438 9.5 8.90625 L 12.28125 11.71875 C 12.679688 12.117188 13.320313 12.117188 13.71875 11.71875 C 14.117188 11.320313 14.117188 10.679688 13.71875 10.28125 L 10.90625 7.5 C 10.699219 7.277344 10.398438 7.164063 10.09375 7.1875 C 10.0625 7.1875 10.03125 7.1875 10 7.1875 Z M 39.6875 7.1875 C 39.460938 7.21875 39.25 7.332031 39.09375 7.5 L 36.28125 10.28125 C 35.882813 10.679688 35.882813 11.320313 36.28125 11.71875 C 36.679688 12.117188 37.320313 12.117188 37.71875 11.71875 L 40.5 8.90625 C 40.8125 8.609375 40.902344 8.144531 40.71875 7.753906 C 40.53125 7.359375 40.117188 7.132813 39.6875 7.1875 Z M 25 9 C 17.261719 9 11 15.261719 11 23 C 11 27.890625 13.191406 31.175781 15.25 33.59375 C 16.28125 34.804688 17.277344 35.824219 17.96875 36.71875 C 18.660156 37.613281 19 38.332031 19 39 L 19 44 C 19 45.699219 20.300781 47 22 47 L 22.78125 47 C 23.324219 47.605469 24.09375 48 25 48 C 25.90625 48 26.675781 47.605469 27.21875 47 L 28 47 C 29.699219 47 31 45.699219 31 44 L 31 39 C 31 38.332031 31.339844 37.636719 32.03125 36.75 C 32.722656 35.863281 33.71875 34.828125 34.75 33.625 C 36.8125 31.214844 39 27.9375 39 23 C 39 15.261719 32.738281 9 25 9 Z M 25 11 C 31.664063 11 37 16.335938 37 23 C 37 27.363281 35.1875 30.078125 33.25 32.34375 C 32.28125 33.476563 31.277344 34.464844 30.46875 35.5 C 29.875 36.257813 29.449219 37.097656 29.21875 38 L 20.78125 38 C 20.550781 37.09375 20.125 36.265625 19.53125 35.5 C 18.722656 34.457031 17.71875 33.453125 16.75 32.3125 C 14.808594 30.03125 13 27.308594 13 23 C 13 16.335938 18.335938 11 25 11 Z M 3.71875 22 C 3.167969 22.078125 2.78125 22.589844 2.859375 23.140625 C 2.9375 23.691406 3.449219 24.078125 4 24 L 8 24 C 8.359375 24.003906 8.695313 23.816406 8.878906 23.503906 C 9.058594 23.191406 9.058594 22.808594 8.878906 22.496094 C 8.695313 22.183594 8.359375 21.996094 8 22 L 4 22 C 3.96875 22 3.9375 22 3.90625 22 C 3.875 22 3.84375 22 3.8125 22 C 3.78125 22 3.75 22 3.71875 22 Z M 41.71875 22 C 41.167969 22.078125 40.78125 22.589844 40.859375 23.140625 C 40.9375 23.691406 41.449219 24.078125 42 24 L 46 24 C 46.359375 24.003906 46.695313 23.816406 46.878906 23.503906 C 47.058594 23.191406 47.058594 22.808594 46.878906 22.496094 C 46.695313 22.183594 46.359375 21.996094 46 22 L 42 22 C 41.96875 22 41.9375 22 41.90625 22 C 41.875 22 41.84375 22 41.8125 22 C 41.78125 22 41.75 22 41.71875 22 Z M 36.90625 33.96875 C 36.863281 33.976563 36.820313 33.988281 36.78125 34 C 36.40625 34.066406 36.105469 34.339844 36 34.703125 C 35.894531 35.070313 36.003906 35.460938 36.28125 35.71875 L 39.09375 38.5 C 39.335938 38.796875 39.722656 38.933594 40.097656 38.847656 C 40.46875 38.761719 40.761719 38.46875 40.847656 38.097656 C 40.933594 37.722656 40.796875 37.335938 40.5 37.09375 L 37.71875 34.28125 C 37.511719 34.058594 37.210938 33.945313 36.90625 33.96875 Z M 12.875 34 C 12.652344 34.023438 12.441406 34.125 12.28125 34.28125 L 9.5 37.09375 C 9.203125 37.335938 9.066406 37.722656 9.152344 38.097656 C 9.238281 38.46875 9.53125 38.761719 9.902344 38.847656 C 10.277344 38.933594 10.664063 38.796875 10.90625 38.5 L 13.71875 35.71875 C 14.042969 35.417969 14.128906 34.941406 13.933594 34.546875 C 13.742188 34.148438 13.308594 33.929688 12.875 34 Z M 21 42 L 22 42 C 22.601563 42 23 42.398438 23 43 C 23 43.601563 22.601563 44 22 44 L 21 44 Z M 25 42 L 29 42 L 29 44 L 25 44 C 24.398438 44 24 43.601563 24 43 C 24 42.398438 24.398438 42 25 42 Z " fill="#808080"/></g></svg>
