<?xml version="1.0" encoding="UTF-8"?>
<svg xmlns="http://www.w3.org/2000/svg" xmlns:xlink="http://www.w3.org/1999/xlink" viewBox="0 0 50 50" version="1.1" fill="#808080"><g id="surface1" fill="#808080"><path style=" " d="M 25 6 C 36.578125 6 46 14.070313 46 23.992188 C 46 33.914063 36.578125 41.988281 25 41.988281 C 23.230469 41.988281 21.507813 41.785156 19.734375 41.371094 L 18.550781 41.09375 L 17.757813 42.015625 C 17.074219 42.816406 14.777344 45.167969 10.988281 45.828125 C 11.710938 44.523438 12.257813 43.195313 12.617188 41.867188 C 12.894531 40.832031 12.945313 40.289063 12.960938 39.816406 L 13.007813 38.699219 L 12.082031 38.074219 C 6.945313 34.601563 4 29.46875 4 23.992188 C 4 14.070313 13.421875 6 25 6 M 25 4 C 12.328125 4 2 12.878906 2 23.992188 C 2 30.445313 5.53125 36.0625 10.960938 39.730469 C 10.953125 39.945313 10.96875 40.296875 10.683594 41.34375 C 10.335938 42.644531 9.625 44.472656 8.1875 46.535156 L 7.164063 48 L 8.949219 48 C 15.140625 48 18.722656 43.964844 19.277344 43.316406 C 21.121094 43.75 23.019531 43.988281 25 43.988281 C 37.671875 43.988281 48 35.109375 48 23.992188 C 48 12.878906 37.671875 4 25 4 Z " fill="#808080"/></g></svg>
