<?xml version="1.0" encoding="UTF-8"?>
<svg xmlns="http://www.w3.org/2000/svg" xmlns:xlink="http://www.w3.org/1999/xlink" viewBox="0 0 50 50" version="1.1" fill="#808080"><g id="surface1" fill="#808080"><path style=" " d="M 28 2 C 27.027344 2 26.046875 2.390625 25.3125 3.125 L 11.34375 17.09375 L 10.71875 14.21875 C 9.992188 10.929688 6.601563 8.945313 3.375 9.90625 C 3.363281 9.90625 3.355469 9.90625 3.34375 9.90625 L 2.71875 10.09375 C 2.242188 10.230469 1.933594 10.695313 2 11.1875 L 4.40625 27.96875 L 4.4375 27.96875 C 4.386719 30.570313 5.296875 33.203125 7.28125 35.1875 L 11.25 39.15625 C 13.015625 40.921875 15.367188 41.773438 17.6875 41.71875 C 18.660156 43.085938 20 44.222656 21.65625 44.9375 L 26.375 47 C 31.195313 49.082031 36.824219 46.816406 38.90625 42 L 44.03125 30.09375 L 47.6875 21.65625 C 48.515625 19.746094 47.632813 17.511719 45.71875 16.6875 C 45.117188 16.425781 44.488281 16.378906 43.875 16.4375 L 44.78125 14.3125 C 45.605469 12.402344 44.722656 10.167969 42.8125 9.34375 C 42.097656 9.035156 41.34375 9.019531 40.625 9.15625 C 40.726563 7.601563 39.910156 6.054688 38.40625 5.40625 C 38.21875 5.324219 38.035156 5.269531 37.84375 5.21875 C 37.679688 4.9375 37.488281 4.675781 37.25 4.4375 C 36.515625 3.703125 35.535156 3.3125 34.5625 3.3125 C 33.589844 3.3125 32.640625 3.703125 31.90625 4.4375 L 31.625 4.71875 C 31.453125 4.132813 31.148438 3.585938 30.6875 3.125 C 29.953125 2.390625 28.972656 2 28 2 Z M 28 4 C 28.457031 4 28.894531 4.175781 29.25 4.53125 C 29.761719 5.042969 29.878906 5.75 29.65625 6.375 C 28.429688 6.585938 27.335938 7.378906 26.8125 8.59375 L 26.15625 10.15625 L 26.125 10.1875 C 26.113281 10.199219 26.105469 10.207031 26.09375 10.21875 L 20.71875 15.625 C 20.421875 15.867188 20.285156 16.253906 20.371094 16.628906 C 20.457031 17 20.75 17.292969 21.121094 17.378906 C 21.496094 17.464844 21.882813 17.328125 22.125 17.03125 L 23.96875 15.1875 L 19 26.71875 L 17.34375 24.3125 C 15.457031 21.523438 11.585938 20.917969 8.9375 23 L 8.40625 23.4375 C 8.015625 23.742188 7.910156 24.289063 8.15625 24.71875 L 16.28125 38.9375 L 16.3125 38.9375 C 16.386719 39.175781 16.46875 39.421875 16.5625 39.65625 C 15.140625 39.464844 13.753906 38.816406 12.65625 37.71875 L 8.71875 33.75 C 7.09375 32.125 6.332031 30.003906 6.40625 27.875 C 6.402344 27.8125 6.390625 27.75 6.375 27.6875 L 4.125 11.8125 C 6.207031 11.304688 8.28125 12.535156 8.75 14.65625 L 9.78125 19.3125 C 9.867188 19.667969 10.136719 19.949219 10.488281 20.046875 C 10.835938 20.140625 11.214844 20.042969 11.46875 19.78125 L 26.71875 4.53125 C 27.074219 4.175781 27.542969 4 28 4 Z M 34.5625 5.3125 C 34.8125 5.3125 35.078125 5.363281 35.3125 5.46875 C 34.503906 5.855469 33.816406 6.523438 33.4375 7.40625 L 33.25 7.8125 C 32.972656 7.449219 32.664063 7.125 32.28125 6.875 L 33.3125 5.84375 C 33.667969 5.488281 34.105469 5.3125 34.5625 5.3125 Z M 36.84375 7.09375 C 36.855469 7.09375 36.863281 7.09375 36.875 7.09375 C 37.023438 7.152344 37.183594 7.171875 37.34375 7.15625 C 37.351563 7.160156 37.367188 7.152344 37.375 7.15625 C 37.460938 7.179688 37.542969 7.214844 37.625 7.25 C 38.542969 7.648438 38.960938 8.675781 38.5625 9.59375 L 37.84375 11.28125 C 37.835938 11.296875 37.820313 11.296875 37.8125 11.3125 L 31.9375 24.90625 C 31.722656 25.414063 31.960938 26.003906 32.46875 26.21875 C 32.976563 26.433594 33.566406 26.195313 33.78125 25.6875 L 39.65625 12.09375 C 40.054688 11.175781 41.082031 10.757813 42 11.15625 C 42.917969 11.554688 43.335938 12.613281 42.9375 13.53125 L 40.71875 18.65625 L 37.0625 27.09375 C 36.839844 27.601563 37.070313 28.199219 37.578125 28.421875 C 38.085938 28.648438 38.683594 28.414063 38.90625 27.90625 L 42.5625 19.4375 C 42.960938 18.519531 43.988281 18.101563 44.90625 18.5 C 45.824219 18.898438 46.238281 19.929688 45.84375 20.84375 C 45.84375 20.855469 45.84375 20.863281 45.84375 20.875 L 42.1875 29.3125 L 37.0625 41.21875 C 35.410156 45.042969 31.015625 46.808594 27.1875 45.15625 L 22.4375 43.125 C 20.972656 42.492188 19.820313 41.445313 19.03125 40.1875 C 18.632813 39.554688 18.328125 38.875 18.125 38.15625 C 18.101563 38.078125 18.070313 38.007813 18.03125 37.9375 L 10.3125 24.5 C 12.0625 23.253906 14.46875 23.636719 15.6875 25.4375 L 18.375 29.375 C 18.582031 29.664063 18.925781 29.820313 19.277344 29.789063 C 19.632813 29.757813 19.941406 29.539063 20.09375 29.21875 L 20.1875 29.03125 L 28.65625 9.375 C 29.054688 8.457031 30.113281 8.070313 31.03125 8.46875 C 31.949219 8.867188 32.335938 9.894531 31.9375 10.8125 L 26.8125 22.6875 C 26.597656 23.195313 26.835938 23.785156 27.34375 24 C 27.851563 24.214844 28.441406 23.976563 28.65625 23.46875 L 33.78125 11.59375 L 35.25 8.1875 C 35.449219 7.726563 35.824219 7.386719 36.25 7.21875 C 36.433594 7.144531 36.644531 7.101563 36.84375 7.09375 Z " fill="#808080"/></g></svg>
